<?xml version="1.0" standalone="no"?>
<!DOCTYPE svg PUBLIC "-//W3C//DTD SVG 20010904//EN"
 "http://www.w3.org/TR/2001/REC-SVG-20010904/DTD/svg10.dtd">
<svg version="1.0" xmlns="http://www.w3.org/2000/svg"
 width="2048.000000pt" height="2048.000000pt" viewBox="0 0 2048.000000 2048.000000"
 preserveAspectRatio="xMidYMid meet">
<metadata>
Created by potrace 1.14, written by Peter Selinger 2001-2017
</metadata>
<g transform="translate(0.000000,2048.000000) scale(0.100000,-0.100000)"
fill="#000000" stroke="none">
<path d="M0 10240 l0 -10240 10240 0 10240 0 0 10240 0 10240 -10240 0 -10240
0 0 -10240z m13400 4594 c0 -11 -5205 -9024 -5211 -9024 -4 0 -1171 2017
-2594 4483 -1423 2465 -2596 4497 -2607 4515 l-20 32 5216 0 c2869 0 5216 -3
5216 -6z m1473 -2294 l1245 -2155 -1248 -3 c-687 -1 -1813 -1 -2502 0 l-1254
3 1218 2110 c670 1161 1232 2134 1249 2164 18 30 34 50 39 45 5 -5 569 -979
1253 -2164z m2033 1182 l572 -987 -574 -3 c-316 -1 -832 -1 -1147 0 l-573 3
570 988 c314 543 573 987 576 987 3 0 262 -445 576 -988z m542 -1290 c-182
-321 -1114 -1922 -1118 -1922 -4 0 -279 472 -1052 1812 l-97 168 1150 0 1150
0 -33 -58z m-1360 -2350 c-145 -256 -2472 -4281 -2474 -4279 0 1 -558 967
-1239 2147 -681 1180 -1245 2155 -1253 2168 l-14 22 2506 0 2507 0 -33 -58z"/>
</g>
</svg>
